<?xml version="1.0" encoding="UTF-8"?>
<svg width="14px" height="15px" viewBox="0 0 14 15" version="1.1" xmlns="http://www.w3.org/2000/svg" xmlns:xlink="http://www.w3.org/1999/xlink">
    <!-- Generator: Sketch 52.4 (67378) - http://www.bohemiancoding.com/sketch -->
    <title>Close</title>
    <desc>Created with Sketch.</desc>
    <g id="Web" stroke="none" stroke-width="1" fill="none" fill-rule="evenodd">
        <g id="Navigation" transform="translate(-17.000000, -15.000000)" fill="#304960">
            <g id="Group" transform="translate(16.000000, 13.000000)">
                <path d="M5.87867966,9.5 L1.28248558,4.90380592 C0.891961287,4.51328163 0.891961287,3.88011665 1.28248558,3.48959236 L1.98959236,2.78248558 C2.38011665,2.39196129 3.01328163,2.39196129 3.40380592,2.78248558 L8,7.37867966 L12.5961941,2.78248558 C12.9867184,2.39196129 13.6198833,2.39196129 14.0104076,2.78248558 L14.7175144,3.48959236 C15.1080387,3.88011665 15.1080387,4.51328163 14.7175144,4.90380592 L10.1213203,9.5 L14.7175144,14.0961941 C15.1080387,14.4867184 15.1080387,15.1198833 14.7175144,15.5104076 L14.0104076,16.2175144 C13.6198833,16.6080387 12.9867184,16.6080387 12.5961941,16.2175144 L8,11.6213203 L3.40380592,16.2175144 C3.01328163,16.6080387 2.38011665,16.6080387 1.98959236,16.2175144 L1.28248558,15.5104076 C0.891961287,15.1198833 0.891961287,14.4867184 1.28248558,14.0961941 L5.87867966,9.5 Z" id="Close"></path>
            </g>
        </g>
    </g>
</svg>