<?xml version="1.0" encoding="UTF-8"?>
<svg width="24px" height="21px" viewBox="0 0 24 21" version="1.1" xmlns="http://www.w3.org/2000/svg" xmlns:xlink="http://www.w3.org/1999/xlink">
    <!-- Generator: Sketch 52.4 (67378) - http://www.bohemiancoding.com/sketch -->
    <title>Icon</title>
    <desc>Created with Sketch.</desc>
    <g id="Web" stroke="none" stroke-width="1" fill="none" fill-rule="evenodd">
        <g id="Mobile" transform="translate(-282.000000, -12.000000)" fill="#304960" fill-rule="nonzero">
            <g id="Group">
                <path d="M304.903125,22.2292969 L300.375,20.5324219 L300.375,15.4464844 C300.375,14.7433594 299.939062,14.1152344 299.278125,13.8667969 L294.590625,12.1089844 C294.210938,11.9636719 293.789062,11.9636719 293.404688,12.1089844 L288.717188,13.8667969 C288.05625,14.1152344 287.620313,14.7433594 287.620313,15.4464844 L287.620313,20.5324219 L283.092188,22.2292969 C282.435938,22.4777344 282,23.1058594 282,23.8089844 L282,28.9699219 C282,29.6074219 282.360937,30.1933594 282.932813,30.4792969 L287.620313,32.8230469 C288.09375,33.0621094 288.65625,33.0621094 289.129687,32.8230469 L294,30.3855469 L298.870313,32.8230469 C299.34375,33.0621094 299.90625,33.0621094 300.379687,32.8230469 L305.067187,30.4792969 C305.639063,30.1933594 306,29.6074219 306,28.9699219 L306,23.8089844 C306,23.1058594 305.564062,22.4777344 304.903125,22.2292969 Z M298.78125,20.5699219 L294.796875,22.0652344 L294.796875,18.8683594 L298.78125,17.1339844 L298.78125,20.5699219 Z M289.21875,15.3808594 L294,13.5902344 L298.78125,15.3808594 L298.78125,15.4089844 L294,17.3496094 L289.21875,15.4089844 L289.21875,15.3808594 Z M293.15625,29.0261719 L289.171875,31.0183594 L289.171875,27.3105469 L293.15625,25.4917969 L293.15625,29.0261719 Z M293.15625,23.7761719 L288.375,25.7167969 L283.59375,23.7761719 L283.59375,23.7480469 L288.375,21.9574219 L293.15625,23.7480469 L293.15625,23.7761719 Z M304.40625,29.0261719 L300.421875,31.0183594 L300.421875,27.3105469 L304.40625,25.4917969 L304.40625,29.0261719 Z M304.40625,23.7761719 L299.625,25.7167969 L294.84375,23.7761719 L294.84375,23.7480469 L299.625,21.9574219 L304.40625,23.7480469 L304.40625,23.7761719 Z" id="Icon"></path>
            </g>
        </g>
    </g>
</svg>