<?xml version="1.0" encoding="UTF-8"?>
<svg width="14px" height="10px" viewBox="0 0 14 10" version="1.1" xmlns="http://www.w3.org/2000/svg" xmlns:xlink="http://www.w3.org/1999/xlink">
    <!-- Generator: Sketch 52.4 (67378) - http://www.bohemiancoding.com/sketch -->
    <title>lg</title>
    <desc>Created with Sketch.</desc>
    <g id="Web" stroke="none" stroke-width="1" fill="none" fill-rule="evenodd">
        <g id="Desktop" transform="translate(-1056.000000, -76.000000)" fill="#A0E7D0" fill-rule="nonzero">
            <g id="Navigation-Bar" transform="translate(0.000000, 44.000000)">
                <g id="Group-6" transform="translate(836.000000, 20.000000)">
                    <g id="Group-4" transform="translate(143.000000, 0.000000)">
                        <path d="M90.8062404,17.4423582 L86.1393422,21.8166317 C85.7226549,22.2071918 85.0003968,21.9337997 85.0003968,21.3739969 L85.0003968,18.874412 L81.2224317,18.874412 C80.8529689,18.874412 80.5557319,18.5958125 80.5557319,18.2495158 L80.5557319,15.749931 C80.5557319,15.4036344 80.8529689,15.1250348 81.2224317,15.1250348 L85.0003968,15.1250348 L85.0003968,12.62545 C85.0003968,12.0682509 85.719877,11.792255 86.1393422,12.1828152 L90.8062404,16.5570886 C91.0645865,16.8018396 91.0645865,17.1976072 90.8062404,17.4423582 Z M82.3335979,21.686445 C82.3335979,21.8582914 82.1835905,21.9988931 82.000248,21.9988931 L79.6667989,21.9988931 C78.1945037,21.9988931 77,20.8792874 77,19.4993082 L77,14.5001386 C77,13.1201595 78.1945037,12.0005538 79.6667989,12.0005538 L82.000248,12.0005538 C82.1835905,12.0005538 82.3335979,12.1411554 82.3335979,12.3130019 L82.3335979,13.3544956 C82.3335979,13.526342 82.1835905,13.6669437 82.000248,13.6669437 L79.6667989,13.6669437 C79.1751079,13.6669437 78.777866,14.0392776 78.777866,14.5001386 L78.777866,19.4993082 C78.777866,19.9601692 79.1751079,20.3325032 79.6667989,20.3325032 L82.000248,20.3325032 C82.1835905,20.3325032 82.3335979,20.4731048 82.3335979,20.6449513 L82.3335979,21.686445 Z" id="lg"></path>
                    </g>
                </g>
            </g>
        </g>
    </g>
</svg>