<?xml version="1.0" encoding="UTF-8"?>
<svg width="122px" height="26px" viewBox="0 0 122 26" version="1.1" xmlns="http://www.w3.org/2000/svg" xmlns:xlink="http://www.w3.org/1999/xlink">
    <!-- Generator: Sketch 52.4 (67378) - http://www.bohemiancoding.com/sketch -->
    <title>Logo</title>
    <desc>Created with Sketch.</desc>
    <g id="Web" stroke="none" stroke-width="1" fill="none" fill-rule="evenodd">
        <g id="Desktop" transform="translate(-120.000000, -71.000000)">
            <g id="Navigation-Bar" transform="translate(0.000000, 44.000000)">
                <g id="Group-5" transform="translate(120.000000, 26.000000)">
                    <g id="Logo" transform="translate(0.000000, 1.000000)">
                        <path d="M78.626,0.54 C77.9846635,0.6266671 77.469002,0.79133212 77.079,1.034 C76.6889981,1.27666788 76.390001,1.64933082 76.182,2.152 C76.0606661,2.4120013 75.9826668,2.89299649 75.948,3.595 C75.9133332,4.29700351 75.8786668,5.04666268 75.844,5.844 C75.8093332,6.58933706 75.7790001,7.46899493 75.753,8.483 C75.7269999,9.49700507 75.714,10.5846609 75.714,11.746 L75.714,13.41 C75.714,14.0166697 75.7183333,14.6363302 75.727,15.269 C75.7356667,15.9016698 75.74,16.5299969 75.74,17.154 L75.74,18.844 C75.74,18.9133337 75.7183336,18.9696664 75.675,19.013 C75.6316665,19.0563335 75.5666671,19.078 75.48,19.078 C75.3413326,19.078 75.1853342,18.9913342 75.012,18.818 C73.5386593,17.1193248 72.1953394,15.5593404 70.982,14.138 C69.7686606,12.7166596 68.6116722,11.3603398 67.511,10.069 C66.4103278,8.77766021 65.3313386,7.51667282 64.274,6.286 C63.2166614,5.05532718 62.0986726,3.78133992 60.92,2.464 L60.92,13.436 C60.92,14.3200044 60.9416665,15.1173298 60.985,15.828 C61.0283336,16.5386702 61.1366658,17.0673316 61.31,17.414 C61.5006676,17.8126687 61.7996646,18.1116657 62.207,18.311 C62.6143354,18.5103343 63.1733298,18.6533329 63.884,18.74 L63.884,19 L57.488,19 L57.488,18.74 C57.9040021,18.6879997 58.3199979,18.5796675 58.736,18.415 C59.1520021,18.2503325 59.4813321,17.9773352 59.724,17.596 C59.9666679,17.2319982 60.1226663,16.6946702 60.192,15.984 C60.2613337,15.2733298 60.3133332,14.4240049 60.348,13.436 C60.3826668,12.6906629 60.4086666,11.8110051 60.426,10.797 C60.4433334,9.78299493 60.452,8.69533914 60.452,7.534 L60.452,4.362 C60.452,4.0153316 60.4433334,3.59066918 60.426,3.088 C60.3739997,2.58533082 60.2526676,2.17366827 60.062,1.853 C59.8713324,1.53233173 59.6460013,1.28100091 59.386,1.099 C59.1259987,0.91699909 58.8443349,0.78700039 58.541,0.709 C58.2376652,0.63099961 57.9473347,0.57466684 57.67,0.54 L57.67,0.28 L62.948,0.28 L75.272,14.684 L75.272,5.844 C75.272,5.1506632 75.2633334,4.48766983 75.246,3.855 C75.2286666,3.22233017 75.1506674,2.72400182 75.012,2.36 C74.8386658,1.87466424 74.5310022,1.48033485 74.089,1.177 C73.6469978,0.87366515 73.0100042,0.66133394 72.178,0.54 L72.178,0.28 L78.626,0.28 L78.626,0.54 Z M90.97,16.452 C90.9526666,16.781335 90.8746674,17.1019984 90.736,17.414 C90.5973326,17.7260016 90.4153345,18.0076654 90.19,18.259 C89.9646655,18.5103346 89.7003349,18.7009994 89.397,18.831 C89.0936652,18.9610007 88.7600018,19.026 88.396,19.026 C87.8066637,19.026 87.2823356,18.8526684 86.823,18.506 C86.3636644,18.1593316 86.134,17.552671 86.134,16.686 L86.082,16.66 C85.9433326,16.8853345 85.7570012,17.1366653 85.523,17.414 C85.2889988,17.6913347 85.0116683,17.9513321 84.691,18.194 C84.3703317,18.4366679 84.015002,18.6316659 83.625,18.779 C83.2349981,18.9263341 82.8060023,19 82.338,19 C82.0606653,19 81.7790014,18.9610004 81.493,18.883 C81.2069986,18.8049996 80.9470012,18.6663343 80.713,18.467 C80.4789988,18.2676657 80.2883341,18.0120016 80.141,17.7 C79.9936659,17.3879984 79.92,17.0066689 79.92,16.556 C79.92,16.0706642 80.1149981,15.6026689 80.505,15.152 C80.895002,14.7013311 81.3759971,14.2940018 81.948,13.93 C82.5200029,13.5659982 83.0269978,13.2540013 83.469,12.994 C83.9110022,12.7339987 84.296665,12.5130009 84.626,12.331 C84.955335,12.1489991 85.2456654,11.9930007 85.497,11.863 C85.7483346,11.7329994 85.9606658,11.6160005 86.134,11.512 L86.134,8.834 C86.134,8.79933316 86.103667,8.71700065 86.043,8.587 C85.982333,8.45699935 85.8783341,8.32266736 85.731,8.184 C85.5836659,8.04533264 85.3800013,7.91966723 85.12,7.807 C84.8599987,7.69433277 84.5220021,7.638 84.106,7.638 C83.8286653,7.638 83.555668,7.68566619 83.287,7.781 C83.018332,7.87633381 82.780001,7.99766593 82.572,8.145 C82.363999,8.29233407 82.1993339,8.43966593 82.078,8.587 C81.9566661,8.73433407 81.896,8.85999948 81.896,8.964 L81.896,10.134 C81.896,10.3766679 81.7703346,10.5933324 81.519,10.784 C81.2676654,10.9746676 80.9946681,11.07 80.7,11.07 C80.4226653,11.07 80.1843343,10.9703343 79.985,10.771 C79.7856657,10.5716657 79.686,10.3420013 79.686,10.082 C79.686,9.87399896 79.7379995,9.6833342 79.842,9.51 C79.9460005,9.3366658 80.0759992,9.18066736 80.232,9.042 C80.3880008,8.90333264 80.5569991,8.78200052 80.739,8.678 C80.9210009,8.57399948 81.0813326,8.4786671 81.22,8.392 C81.6706689,8.1319987 82.1299977,7.88066788 82.598,7.638 C83.0660023,7.39533212 83.5123312,7.1873342 83.937,7.014 C84.3616688,6.8406658 84.7516649,6.70200052 85.107,6.598 C85.4623351,6.49399948 85.7526655,6.442 85.978,6.442 C86.4286689,6.442 86.8533313,6.55899883 87.252,6.793 C87.6506687,7.02700117 87.9366658,7.3173316 88.11,7.664 C88.1793337,7.78533394 88.2226666,7.99766515 88.24,8.301 C88.2573334,8.60433485 88.266,8.90333186 88.266,9.198 C88.266,9.82200312 88.2616667,10.3853308 88.253,10.888 C88.2443333,11.3906692 88.24,11.8759977 88.24,12.344 C88.24,12.8120023 88.2356667,13.2929975 88.227,13.787 C88.2183333,14.2810025 88.214,14.8226637 88.214,15.412 C88.214,16.1920039 88.348332,16.7076654 88.617,16.959 C88.885668,17.2103346 89.1933316,17.336 89.54,17.336 C89.9386687,17.336 90.2333324,17.2536675 90.424,17.089 C90.6146676,16.9243325 90.7446663,16.7120013 90.814,16.452 L90.97,16.452 Z M86.134,15.932 L86.134,11.928 C85.8219984,12.1533345 85.4320023,12.3916654 84.964,12.643 C84.4959977,12.8943346 84.0410022,13.1673319 83.599,13.462 C83.1569978,13.7566681 82.7756683,14.0816649 82.455,14.437 C82.1343317,14.7923351 81.974,15.1953311 81.974,15.646 C81.974,16.0966689 82.1299984,16.5039982 82.442,16.868 C82.7540016,17.2320018 83.1613308,17.414 83.664,17.414 C84.1146689,17.414 84.5133316,17.3620005 84.86,17.258 C85.2066684,17.1539995 85.5273319,16.9546681 85.822,16.66 C86.030001,16.4693324 86.134,16.2266681 86.134,15.932 Z M110.36,19 L105.238,19 L105.238,18.714 C105.706002,18.6793332 106.061332,18.6230004 106.304,18.545 C106.546668,18.4669996 106.668,18.2893347 106.668,18.012 L106.668,11.382 C106.668,10.3766616 106.490335,9.57500299 106.135,8.977 C105.779665,8.37899701 105.151338,8.08 104.25,8.08 C103.677997,8.08 103.201335,8.23166515 102.82,8.535 C102.438665,8.83833485 102.040002,9.22399766 101.624,9.692 L101.624,18.09 C101.624,18.2113339 101.667333,18.3153329 101.754,18.402 C101.840667,18.4886671 101.953333,18.5536665 102.092,18.597 C102.230667,18.6403336 102.382333,18.6749999 102.547,18.701 C102.711667,18.7270001 102.871999,18.7486666 103.028,18.766 L103.028,19 L97.906,19 L97.906,18.714 C98.3740023,18.6793332 98.7466653,18.6230004 99.024,18.545 C99.3013347,18.4669996 99.44,18.2893347 99.44,18.012 L99.44,11.356 C99.44,10.3333282 99.2623351,9.53166957 98.907,8.951 C98.5516649,8.37033043 97.9233378,8.08 97.022,8.08 C96.4499971,8.08 95.9820018,8.20133212 95.618,8.444 C95.2539982,8.68666788 94.8466689,9.05066424 94.396,9.536 L94.396,18.064 C94.4306668,18.2373342 94.4913329,18.3629996 94.578,18.441 C94.6646671,18.5190004 94.7729994,18.5753332 94.903,18.61 C95.0330007,18.6446668 95.1759992,18.6663333 95.332,18.675 C95.4880008,18.6836667 95.6526658,18.7053332 95.826,18.74 L95.826,19 L90.782,19 L90.782,18.74 C91.1806687,18.7053332 91.5229986,18.6273339 91.809,18.506 C92.0950014,18.3846661 92.238,18.1853347 92.238,17.908 L92.238,9.016 C92.238,8.87733264 92.2250001,8.77333368 92.199,8.704 C92.1729999,8.63466632 92.0993339,8.5566671 91.978,8.47 C91.8219992,8.3833329 91.640001,8.28366723 91.432,8.171 C91.223999,8.05833277 91.016001,7.9586671 90.808,7.872 L90.808,7.664 L94.214,6.442 L94.37,6.442 L94.37,9.25 L94.422,9.276 C94.5953342,8.96399844 94.8206653,8.63900169 95.098,8.301 C95.3753347,7.96299831 95.6959982,7.65966801 96.06,7.391 C96.4240018,7.12233199 96.8183312,6.89700091 97.243,6.715 C97.6676688,6.53299909 98.1139977,6.442 98.582,6.442 C99.4140042,6.442 100.085664,6.71499727 100.597,7.261 C101.108336,7.80700273 101.424666,8.53932874 101.546,9.458 L101.624,9.458 C101.780001,9.14599844 101.996665,8.81233511 102.274,8.457 C102.551335,8.10166489 102.871998,7.77233485 103.236,7.469 C103.600002,7.16566515 104.002998,6.91866762 104.445,6.728 C104.887002,6.53733238 105.341998,6.442 105.81,6.442 C106.815338,6.442 107.573664,6.80599636 108.085,7.534 C108.596336,8.26200364 108.852,9.19799428 108.852,10.342 L108.852,18.09 C108.852,18.2113339 108.903999,18.3153329 109.008,18.402 C109.112001,18.4886671 109.237666,18.5536665 109.385,18.597 C109.532334,18.6403336 109.692666,18.6749999 109.866,18.701 C110.039334,18.7270001 110.203999,18.7486666 110.36,18.766 L110.36,19 Z M121.43,15.048 C121.360666,15.4293352 121.204668,15.858331 120.962,16.335 C120.719332,16.8116691 120.390002,17.2493313 119.974,17.648 C119.557998,18.0466687 119.05967,18.3759987 118.479,18.636 C117.89833,18.8960013 117.25267,19.026 116.542,19.026 C115.657996,19.026 114.852004,18.861335 114.124,18.532 C113.395996,18.202665 112.776336,17.739003 112.265,17.141 C111.753664,16.542997 111.359335,15.841004 111.082,15.035 C110.804665,14.228996 110.666,13.3753378 110.666,12.474 C110.666,11.7459964 110.795999,11.0223369 111.056,10.303 C111.316001,9.58366307 111.684331,8.93800286 112.161,8.366 C112.637669,7.79399714 113.21833,7.33033511 113.903,6.975 C114.58767,6.61966489 115.345996,6.442 116.178,6.442 C116.854003,6.442 117.490997,6.5286658 118.089,6.702 C118.687003,6.8753342 119.206998,7.13966489 119.649,7.495 C120.091002,7.85033511 120.450665,8.29666398 120.728,8.834 C121.005335,9.37133602 121.17,10.0039964 121.222,10.732 L112.876,10.732 C112.876,10.8706674 112.867333,11.0309991 112.85,11.213 C112.832667,11.3950009 112.824,11.5813324 112.824,11.772 C112.824,12.5000036 112.927999,13.1976633 113.136,13.865 C113.344001,14.5323367 113.647331,15.1216641 114.046,15.633 C114.444669,16.1443359 114.94733,16.5473319 115.554,16.842 C116.16067,17.1366681 116.862663,17.284 117.66,17.284 C118.526671,17.284 119.284997,17.0630022 119.935,16.621 C120.585003,16.1789978 121.013999,15.6373365 121.222,14.996 L121.43,15.048 Z M118.648,9.224 C118.648,8.58266346 118.427002,8.03233563 117.985,7.573 C117.542998,7.11366437 116.949337,6.884 116.204,6.884 C115.718664,6.884 115.281002,7.02699857 114.891,7.313 C114.500998,7.59900143 114.163001,7.93266476 113.877,8.314 C113.590999,8.69533524 113.370001,9.08099805 113.214,9.471 C113.057999,9.86100195 112.962667,10.159999 112.928,10.368 L113.994,10.368 C114.306002,10.368 114.613665,10.3636667 114.917,10.355 C115.220335,10.3463333 115.536665,10.3376667 115.866,10.329 C116.195335,10.3203333 116.559331,10.316 116.958,10.316 C117.218001,10.316 117.460666,10.3073334 117.686,10.29 C117.911334,10.2726666 118.110666,10.2293337 118.284,10.16 C118.405334,10.0213326 118.496333,9.89133394 118.557,9.77 C118.617667,9.64866606 118.648,9.46666788 118.648,9.224 Z" id="LogoName" fill="#3B566F"></path>
                        <path d="M18.538,13.644 L17.576,19 L0.884,19 L0.884,18.74 C1.3173355,18.6706663 1.74633121,18.5580008 2.171,18.402 C2.59566879,18.2459992 2.92933212,18.0293347 3.172,17.752 C3.2586671,17.6479995 3.33233303,17.4963343 3.393,17.297 C3.45366697,17.0976657 3.50133316,16.8680013 3.536,16.608 C3.57066684,16.3479987 3.60099987,16.0750014 3.627,15.789 C3.65300013,15.5029986 3.666,15.2213347 3.666,14.944 C3.666,14.7013321 3.67033329,14.3720021 3.679,13.956 C3.68766671,13.5399979 3.69633329,13.0850025 3.705,12.591 C3.71366671,12.0969975 3.718,11.5900026 3.718,11.07 L3.718,3.608 C3.718,3.29599844 3.70500013,3.00566801 3.679,2.737 C3.65299987,2.46833199 3.61400026,2.23000104 3.562,2.022 C3.50999974,1.81399896 3.43200052,1.64933394 3.328,1.528 C3.08533212,1.23333186 2.76033537,1.00800078 2.353,0.852 C1.94566463,0.69599922 1.51666892,0.59200026 1.066,0.54 L1.066,0.28 L9.36,0.28 L9.36,0.54 C9.13466554,0.57466684 8.86600156,0.62666632 8.554,0.696 C8.24199844,0.76533368 7.94733472,0.87799922 7.67,1.034 C7.39266528,1.19000078 7.15433433,1.41099857 6.955,1.697 C6.75566567,1.98300143 6.64733342,2.35999766 6.63,2.828 C6.61266658,3.4346697 6.59966671,3.98933082 6.591,4.492 C6.58233329,4.99466918 6.57366671,5.48866424 6.565,5.974 C6.55633329,6.45933576 6.552,6.9619974 6.552,7.482 L6.552,12.214 C6.552,12.6646689 6.55633329,13.1283309 6.565,13.605 C6.57366671,14.081669 6.578,14.6146637 6.578,15.204 C6.59533342,15.7586694 6.61699987,16.2873308 6.643,16.79 C6.66900013,17.2926692 6.75999922,17.6653321 6.916,17.908 C6.98533368,17.9946671 7.12399896,18.0813329 7.332,18.168 C7.54000104,18.2546671 7.79133186,18.328333 8.086,18.389 C8.38066814,18.449667 8.7013316,18.5016664 9.048,18.545 C9.3946684,18.5883335 9.7413316,18.61 10.088,18.61 C10.2266674,18.61 10.4476652,18.6056667 10.751,18.597 C11.0543349,18.5883333 11.3879982,18.5710001 11.752,18.545 C12.1160018,18.5189999 12.4886648,18.4800003 12.87,18.428 C13.2513352,18.3759997 13.5893319,18.3066671 13.884,18.22 C14.5773368,18.0293324 15.1536644,17.7780016 15.613,17.466 C16.0723356,17.1539984 16.466665,16.7943354 16.796,16.387 C17.125335,15.9796646 17.4026655,15.537669 17.628,15.061 C17.8533345,14.5843309 18.069999,14.0860026 18.278,13.566 L18.538,13.644 Z M30.7,12.63 C30.7,13.5140044 30.535335,14.3503294 30.206,15.139 C29.876665,15.9276706 29.4346694,16.6166637 28.88,17.206 C28.3253306,17.7953363 27.6796704,18.254665 26.943,18.584 C26.2063297,18.913335 25.4306707,19.078 24.616,19.078 C23.9399966,19.078 23.2380036,18.9566679 22.51,18.714 C21.7819964,18.4713321 21.1103364,18.0856693 20.495,17.557 C19.8796636,17.0283307 19.377002,16.3523374 18.987,15.529 C18.5969981,14.7056625 18.402,13.7393389 18.402,12.63 C18.402,11.8326627 18.5536652,11.0613371 18.857,10.316 C19.1603349,9.57066294 19.5849973,8.91200286 20.131,8.34 C20.6770027,7.76799714 21.3356628,7.3086684 22.107,6.962 C22.8783372,6.6153316 23.7319953,6.442 24.668,6.442 C25.3613368,6.442 26.0633298,6.5719987 26.774,6.832 C27.4846702,7.0920013 28.1303304,7.47766411 28.711,7.989 C29.2916696,8.50033589 29.7683315,9.14166281 30.141,9.913 C30.5136685,10.6843372 30.7,11.5899948 30.7,12.63 Z M28.282,12.604 C28.282,12.0146637 28.2170007,11.3820034 28.087,10.706 C27.9569994,10.0299966 27.7446681,9.40600286 27.45,8.834 C27.1553319,8.26199714 26.7653358,7.78966853 26.28,7.417 C25.7946642,7.04433147 25.1966702,6.858 24.486,6.858 C23.9139971,6.858 23.4026689,7.0313316 22.952,7.378 C22.5013311,7.7246684 22.1156683,8.17966385 21.795,8.743 C21.4743317,9.30633615 21.2316675,9.93899649 21.067,10.641 C20.9023325,11.3430035 20.82,12.0579964 20.82,12.786 C20.82,13.5833373 20.8893326,14.3373298 21.028,15.048 C21.1666674,15.7586702 21.3919984,16.3869973 21.704,16.933 C22.0160016,17.4790027 22.4146642,17.9123317 22.9,18.233 C23.3853358,18.5536683 23.9659966,18.714 24.642,18.714 C25.3180034,18.714 25.8856644,18.5103354 26.345,18.103 C26.8043356,17.6956646 27.1769986,17.1843364 27.463,16.569 C27.7490014,15.9536636 27.9569994,15.2906702 28.087,14.58 C28.2170007,13.8693298 28.282,13.2106697 28.282,12.604 Z M44.604,7.872 C44.604,8.1320013 44.5130009,8.36166567 44.331,8.561 C44.1489991,8.76033433 43.9280013,8.86 43.668,8.86 C43.5639995,8.86 43.408001,8.8166671 43.2,8.73 C42.991999,8.6433329 42.7623346,8.53933394 42.511,8.418 C42.2596654,8.29666606 42.0040013,8.16233407 41.744,8.015 C41.4839987,7.86766593 41.250001,7.73333394 41.042,7.612 L40.938,7.716 C41.1980013,8.11466866 41.4189991,8.4873316 41.601,8.834 C41.7830009,9.1806684 41.874,9.63133056 41.874,10.186 C41.874,11.5553402 41.3973381,12.5823299 40.444,13.267 C39.4906619,13.9516701 38.1733417,14.294 36.492,14.294 C36.2493321,14.294 36.0023346,14.2766668 35.751,14.242 C35.4996654,14.2073332 35.2006684,14.19 34.854,14.19 C34.2993306,14.2246668 33.857335,14.3546655 33.528,14.58 C33.198665,14.8053345 33.034,15.0913316 33.034,15.438 C33.034,15.7153347 33.1206658,15.9449991 33.294,16.127 C33.4673342,16.3090009 33.6839987,16.4519995 33.944,16.556 C34.2040013,16.6600005 34.4899984,16.7293332 34.802,16.764 C35.1140016,16.7986668 35.4173319,16.816 35.712,16.816 L39.872,16.816 C40.4786697,16.816 41.0246642,16.9113324 41.51,17.102 C41.9953358,17.2926676 42.4113316,17.552665 42.758,17.882 C43.1046684,18.211335 43.3689991,18.5883312 43.551,19.013 C43.7330009,19.4376688 43.824,19.9099974 43.824,20.43 C43.824,21.1060034 43.6550017,21.7516636 43.317,22.367 C42.9789983,22.9823364 42.5066697,23.5239977 41.9,23.992 C41.2933303,24.4600023 40.5783375,24.828332 39.755,25.097 C38.9316626,25.365668 38.0260049,25.5 37.038,25.5 C35.1486572,25.5 33.6796719,25.2183361 32.631,24.655 C31.5823281,24.0916638 31.058,23.3160049 31.058,22.328 C31.058,21.9639982 31.1576657,21.6346681 31.357,21.34 C31.5563343,21.0453319 31.8076652,20.763668 32.111,20.495 C32.4143349,20.226332 32.7523315,19.9750012 33.125,19.741 C33.4976685,19.5069988 33.8659982,19.2773345 34.23,19.052 L34.23,19 C33.3459956,18.8959995 32.6656691,18.6446687 32.189,18.246 C31.712331,17.8473313 31.474,17.31867 31.474,16.66 C31.474,16.330665 31.5519992,16.0186681 31.708,15.724 C31.8640008,15.4293319 32.0806653,15.1606679 32.358,14.918 C32.6353347,14.6753321 32.9603315,14.4716675 33.333,14.307 C33.7056685,14.1423325 34.1086645,14.0340003 34.542,13.982 L34.542,13.904 C33.7793295,13.6093319 33.1856688,13.1760029 32.761,12.604 C32.3363312,12.0319971 32.124,11.3040044 32.124,10.42 C32.124,9.86533056 32.2496654,9.34533576 32.501,8.86 C32.7523346,8.37466424 33.1033311,7.95433511 33.554,7.599 C34.0046689,7.24366489 34.5376636,6.96200104 35.153,6.754 C35.7683364,6.54599896 36.4399964,6.442 37.168,6.442 C37.82667,6.442 38.4116641,6.50266606 38.923,6.624 C39.4343359,6.74533394 39.9673306,6.95333186 40.522,7.248 C40.730001,7.31733368 40.9076659,7.36066658 41.055,7.378 C41.2023341,7.39533342 41.379999,7.404 41.588,7.404 C41.796001,7.404 41.9823325,7.37366697 42.147,7.313 C42.3116675,7.25233303 42.4633326,7.18300039 42.602,7.105 C42.7406674,7.02699961 42.8879992,6.95766697 43.044,6.897 C43.2000008,6.83633303 43.381999,6.806 43.59,6.806 C43.8846681,6.806 44.1273324,6.90999896 44.318,7.118 C44.5086676,7.32600104 44.604,7.57733186 44.604,7.872 Z M39.794,10.186 C39.794,9.73533108 39.7333339,9.31066866 39.612,8.912 C39.4906661,8.51333134 39.3130012,8.16233485 39.079,7.859 C38.8449988,7.55566515 38.5503351,7.31300091 38.195,7.131 C37.8396649,6.94899909 37.4280023,6.858 36.96,6.858 C36.5266645,6.858 36.1366684,6.95766567 35.79,7.157 C35.4433316,7.35633433 35.1530012,7.62499831 34.919,7.963 C34.6849988,8.30100169 34.5073339,8.6866645 34.386,9.12 C34.2646661,9.5533355 34.204,9.99533108 34.204,10.446 C34.204,11.4860052 34.4683307,12.3223302 34.997,12.955 C35.5256693,13.5876698 36.1713295,13.904 36.934,13.904 C37.4020023,13.904 37.8136649,13.800001 38.169,13.592 C38.5243351,13.383999 38.8233321,13.1066684 39.066,12.76 C39.3086679,12.4133316 39.4906661,12.0190022 39.612,11.577 C39.7333339,11.1349978 39.794,10.6713358 39.794,10.186 Z M42.082,21.496 C42.082,20.9933308 41.978001,20.5600018 41.77,20.196 C41.561999,19.8319982 41.3106681,19.5806674 41.016,19.442 C40.6346648,19.2513324 40.1580029,19.1170004 39.586,19.039 C39.0139971,18.9609996 38.2253384,18.922 37.22,18.922 C36.8559982,18.922 36.4833352,18.9393332 36.102,18.974 C35.7206648,19.0086668 35.4086679,19.0433332 35.166,19.078 C34.3513293,19.286001 33.7880016,19.6153311 33.476,20.066 C33.1639984,20.5166689 33.008,21.010664 33.008,21.548 C33.008,22.1026694 33.1596652,22.5879979 33.463,23.004 C33.7663349,23.4200021 34.1433311,23.7709986 34.594,24.057 C35.0446689,24.3430014 35.5256641,24.5553326 36.037,24.694 C36.5483359,24.8326674 37.0206645,24.902 37.454,24.902 C37.9740026,24.902 38.4203315,24.8760003 38.793,24.824 C39.1656685,24.7719997 39.4993319,24.6940005 39.794,24.59 C40.4006697,24.3473321 40.9336644,23.957336 41.393,23.42 C41.8523356,22.882664 42.082,22.2413371 42.082,21.496 Z M56.636,12.63 C56.636,13.5140044 56.471335,14.3503294 56.142,15.139 C55.812665,15.9276706 55.3706694,16.6166637 54.816,17.206 C54.2613306,17.7953363 53.6156704,18.254665 52.879,18.584 C52.1423297,18.913335 51.3666707,19.078 50.552,19.078 C49.8759966,19.078 49.1740036,18.9566679 48.446,18.714 C47.7179964,18.4713321 47.0463364,18.0856693 46.431,17.557 C45.8156636,17.0283307 45.313002,16.3523374 44.923,15.529 C44.5329981,14.7056625 44.338,13.7393389 44.338,12.63 C44.338,11.8326627 44.4896652,11.0613371 44.793,10.316 C45.0963349,9.57066294 45.5209973,8.91200286 46.067,8.34 C46.6130027,7.76799714 47.2716628,7.3086684 48.043,6.962 C48.8143372,6.6153316 49.6679953,6.442 50.604,6.442 C51.2973368,6.442 51.9993298,6.5719987 52.71,6.832 C53.4206702,7.0920013 54.0663304,7.47766411 54.647,7.989 C55.2276696,8.50033589 55.7043315,9.14166281 56.077,9.913 C56.4496685,10.6843372 56.636,11.5899948 56.636,12.63 Z M54.218,12.604 C54.218,12.0146637 54.1530007,11.3820034 54.023,10.706 C53.8929994,10.0299966 53.6806681,9.40600286 53.386,8.834 C53.0913319,8.26199714 52.7013358,7.78966853 52.216,7.417 C51.7306642,7.04433147 51.1326702,6.858 50.422,6.858 C49.8499971,6.858 49.3386689,7.0313316 48.888,7.378 C48.4373311,7.7246684 48.0516683,8.17966385 47.731,8.743 C47.4103317,9.30633615 47.1676675,9.93899649 47.003,10.641 C46.8383325,11.3430035 46.756,12.0579964 46.756,12.786 C46.756,13.5833373 46.8253326,14.3373298 46.964,15.048 C47.1026674,15.7586702 47.3279984,16.3869973 47.64,16.933 C47.9520016,17.4790027 48.3506642,17.9123317 48.836,18.233 C49.3213358,18.5536683 49.9019966,18.714 50.578,18.714 C51.2540034,18.714 51.8216644,18.5103354 52.281,18.103 C52.7403356,17.6956646 53.1129986,17.1843364 53.399,16.569 C53.6850014,15.9536636 53.8929994,15.2906702 54.023,14.58 C54.1530007,13.8693298 54.218,13.2106697 54.218,12.604 Z" id="LogoName-Copy" fill="#6F7F80"></path>
                    </g>
                </g>
            </g>
        </g>
    </g>
</svg>