<?xml version="1.0" encoding="UTF-8"?>
<svg width="16px" height="15px" viewBox="0 0 16 15" version="1.1" xmlns="http://www.w3.org/2000/svg" xmlns:xlink="http://www.w3.org/1999/xlink">
    <!-- Generator: Sketch 52.4 (67378) - http://www.bohemiancoding.com/sketch -->
    <title>Menu</title>
    <desc>Created with Sketch.</desc>
    <g id="Web" stroke="none" stroke-width="1" fill="none" fill-rule="evenodd">
        <g id="Mobile" transform="translate(-16.000000, -15.000000)" fill="#304960">
            <g id="Group">
                <path d="M17,15 L31,15 C31.5522847,15 32,15.4477153 32,16 L32,17 C32,17.5522847 31.5522847,18 31,18 L17,18 C16.4477153,18 16,17.5522847 16,17 L16,16 C16,15.4477153 16.4477153,15 17,15 Z M17,21 L31,21 C31.5522847,21 32,21.4477153 32,22 L32,23 C32,23.5522847 31.5522847,24 31,24 L17,24 C16.4477153,24 16,23.5522847 16,23 L16,22 C16,21.4477153 16.4477153,21 17,21 Z M17,27 L31,27 C31.5522847,27 32,27.4477153 32,28 L32,29 C32,29.5522847 31.5522847,30 31,30 L17,30 C16.4477153,30 16,29.5522847 16,29 L16,28 C16,27.4477153 16.4477153,27 17,27 Z" id="Menu"></path>
            </g>
        </g>
    </g>
</svg>