<?xml version="1.0" encoding="UTF-8"?>
<svg width="23px" height="20px" viewBox="0 0 23 20" version="1.1" xmlns="http://www.w3.org/2000/svg" xmlns:xlink="http://www.w3.org/1999/xlink">
    <!-- Generator: Sketch 52.4 (67378) - http://www.bohemiancoding.com/sketch -->
    <title>tw</title>
    <desc>Created with Sketch.</desc>
    <g id="Web" stroke="none" stroke-width="1" fill="none" fill-rule="evenodd">
        <g id="Navigation" transform="translate(-143.000000, -501.000000)" fill="#163D62">
            <g id="Normal" transform="translate(101.000000, 500.000000)">
                <path d="M62.6358423,5.98435685 C62.650442,6.20309641 62.650442,6.42188406 62.650442,6.64062361 C62.650442,13.3124686 57.9074371,21 49.2386044,21 C46.5678987,21 44.0869437,20.171839 42,18.7344007 C42.3794566,18.781246 42.7442685,18.7968771 43.1383248,18.7968771 C45.3419759,18.7968771 47.3705659,18.0000265 48.9905,16.6406477 C46.9181559,16.5937543 45.1814695,15.1406368 44.5831077,13.1406224 C44.8750112,13.1874677 45.1668698,13.2187299 45.4733729,13.2187299 C45.8965836,13.2187299 46.3198391,13.1562054 46.7138504,13.0468838 C44.5539533,12.5780943 42.9339744,10.5468657 42.9339744,8.09374106 L42.9339744,8.03126465 C43.5614905,8.40626736 44.2912492,8.64063804 45.0646721,8.67185219 C43.7949953,7.76558363 42.9631737,6.21872753 42.9631737,4.46871491 C42.9631737,3.53123219 43.1966336,2.671857 43.6052895,1.92185159 C45.925738,4.98434964 49.4137106,6.98431597 53.3248489,7.20310362 C53.2518955,6.82810091 53.2080965,6.43751518 53.2080965,6.04688135 C53.2080965,3.26559926 55.3096399,1 57.921947,1 C59.2791769,1 60.5050547,1.60937338 61.3661206,2.59374947 C62.431447,2.37500992 63.4530193,1.95311384 64.3578842,1.37500271 C64.0075821,2.5469042 63.2633135,3.53128029 62.2855402,4.1562367 C63.2341591,4.04691502 64.1535787,3.76560287 65,3.37501713 C64.3579741,4.37497625 63.5552619,5.26556559 62.6358423,5.98435685 Z" id="tw"></path>
            </g>
        </g>
    </g>
</svg>