<?xml version="1.0" encoding="UTF-8"?>
<svg width="20px" height="20px" viewBox="0 0 20 20" version="1.1" xmlns="http://www.w3.org/2000/svg" xmlns:xlink="http://www.w3.org/1999/xlink">
    <!-- Generator: Sketch 52.4 (67378) - http://www.bohemiancoding.com/sketch -->
    <title>User</title>
    <desc>Created with Sketch.</desc>
    <g id="Web" stroke="none" stroke-width="1" fill="none" fill-rule="evenodd">
        <g id="Navigation" transform="translate(-284.000000, -13.000000)" fill="#304960" fill-rule="nonzero">
            <g id="Group" transform="translate(16.000000, 13.000000)">
                <g id="Group-2" transform="translate(268.000000, 0.000000)">
                    <path d="M10,0 C4.47580645,0 0,4.47580645 0,10 C0,15.5241935 4.47580645,20 10,20 C15.5241935,20 20,15.5241935 20,10 C20,4.47580645 15.5241935,0 10,0 Z M10,3.87096774 C11.9596774,3.87096774 13.5483871,5.45967742 13.5483871,7.41935484 C13.5483871,9.37903226 11.9596774,10.9677419 10,10.9677419 C8.04032258,10.9677419 6.4516129,9.37903226 6.4516129,7.41935484 C6.4516129,5.45967742 8.04032258,3.87096774 10,3.87096774 Z M10,17.7419355 C7.63306452,17.7419355 5.51209677,16.6693548 4.09274194,14.9919355 C4.85080645,13.5645161 6.33467742,12.5806452 8.06451613,12.5806452 C8.16129032,12.5806452 8.25806452,12.5967742 8.35080645,12.625 C8.875,12.7943548 9.4233871,12.9032258 10,12.9032258 C10.5766129,12.9032258 11.1290323,12.7943548 11.6491935,12.625 C11.7419355,12.5967742 11.8387097,12.5806452 11.9354839,12.5806452 C13.6653226,12.5806452 15.1491935,13.5645161 15.9072581,14.9919355 C14.4879032,16.6693548 12.3669355,17.7419355 10,17.7419355 Z" id="User"></path>
                </g>
            </g>
        </g>
    </g>
</svg>