<svg xmlns="http://www.w3.org/2000/svg" viewBox="0 0 45.83 31.09"><title>car-truck</title><circle cx="6.69" cy="26.6" r="3.48" style="fill:none;stroke:#ffc925;stroke-miterlimit:10;stroke-width:2px"/><circle cx="6.69" cy="26.49" r="1.11" style="fill:none;stroke:#ffc925;stroke-miterlimit:10;stroke-width:2px"/><circle cx="14.07" cy="26.6" r="3.48" style="fill:none;stroke:#ffc925;stroke-miterlimit:10;stroke-width:2px"/><circle cx="14.07" cy="26.49" r="1.11" style="fill:none;stroke:#ffc925;stroke-miterlimit:10;stroke-width:2px"/><circle cx="37.17" cy="26.6" r="3.48" style="fill:none;stroke:#ffc925;stroke-miterlimit:10;stroke-width:2px"/><circle cx="37.17" cy="26.49" r="1.11" style="fill:none;stroke:#ffc925;stroke-miterlimit:10;stroke-width:2px"/><line x1="33.69" y1="26.26" x2="17.75" y2="26.26" style="fill:none;stroke:#ffc925;stroke-miterlimit:10;stroke-width:2px"/><rect x="23.16" y="13.84" width="3.67" height="8.56" style="fill:none;stroke:#ffc925;stroke-miterlimit:10;stroke-width:2px"/><line x1="26.83" y1="1" x2="26.83" y2="22.4" style="fill:none;stroke:#ffc925;stroke-linecap:round;stroke-miterlimit:10;stroke-width:2px"/><polyline points="21.67 6.26 25.04 9.63 25.04 13.74" style="fill:none;stroke:#ffc925;stroke-linecap:round;stroke-miterlimit:10;stroke-width:2px"/><line x1="9.19" y1="22.4" x2="14.85" y2="19.31" style="fill:none;stroke:#ffc925;stroke-linecap:round;stroke-miterlimit:10;stroke-width:2px"/><path d="M878,493.61h29.8l1.88-.89a8.63,8.63,0,0,1,8.85.86l1.67,1.23a1,1,0,0,0,1.63.26h0v-3.2a1.47,1.47,0,0,0-1.47-1.47h0v-2.54l.17-.11a2.71,2.71,0,0,0,1.3-2.32v-8.2h0a3.11,3.11,0,0,0-3.11-3.14H907a3.26,3.26,0,0,0-3.25,3.26v16.26" transform="translate(-877 -471.21)" style="fill:none;stroke:#ffc925;stroke-linecap:round;stroke-miterlimit:10;stroke-width:2px"/><polyline points="44.83 11.27 38.84 11.27 37.17 10.07 34.97 10.07 34.97 21.14" style="fill:none;stroke:#ffc925;stroke-miterlimit:10;stroke-width:2px"/><line x1="34.2" y1="2.88" x2="34.2" y2="10.07" style="fill:none;stroke:#ffc925;stroke-miterlimit:10;stroke-width:2px"/><path d="M913.38,474.09" transform="translate(-877 -471.21)" style="fill:none;stroke:#ffc925;stroke-miterlimit:10;stroke-width:2px"/><line x1="36.6" y1="2.88" x2="36.6" y2="20.43" style="fill:none;stroke:#ffc925;stroke-miterlimit:10;stroke-width:2px"/><path d="M28.4,13h2.73a0,0,0,0,1,0,0v0a2.42,2.42,0,0,1-2.42,2.42H28.4a0,0,0,0,1,0,0V13A0,0,0,0,1,28.4,13Z" style="fill:none;stroke:#ffc925;stroke-miterlimit:10;stroke-width:2px"/><line x1="28.12" y1="17.42" x2="30.95" y2="17.42" style="fill:none;stroke:#ffc925;stroke-miterlimit:10;stroke-width:2px"/><line x1="28.12" y1="19.38" x2="30.95" y2="19.38" style="fill:none;stroke:#ffc925;stroke-miterlimit:10;stroke-width:2px"/><line x1="44.83" y1="13.52" x2="40.65" y2="13.52" style="fill:none;stroke:#ffc925;stroke-linecap:round;stroke-miterlimit:10;stroke-width:2px"/><line x1="44.83" y1="15.24" x2="42.31" y2="15.24" style="fill:none;stroke:#ffc925;stroke-linecap:round;stroke-miterlimit:10;stroke-width:2px"/><line x1="28.98" y1="6.26" x2="33.69" y2="6.26" style="fill:none;stroke:#ffc925;stroke-linecap:round;stroke-miterlimit:10;stroke-width:2px"/><line x1="28.4" y1="8.29" x2="33.69" y2="8.29" style="fill:none;stroke:#ffc925;stroke-linecap:round;stroke-miterlimit:10;stroke-width:2px"/></svg>