<svg xmlns="http://www.w3.org/2000/svg" viewBox="0 0 39.71 16.75">
    <line x1="29.24" y1="12.73" x2="12.47" y2="12.73"
          style="fill:none;stroke:#ffc925;stroke-miterlimit:10;stroke-width:2px"/>
    <path d="M474.59,307.2s-4.92-.15-4.87-2.81c0-1.47,0-2.95,0-4A1.37,1.37,0,0,1,471.1,299h2s6.31-3.75,13.05-3.55c4.15.38,4.61.75,8.7,3.35,1.45.93,5.34,1.83,7.78,2.1,3,.32,5.21,2.6,4.72,5.58,0,.06-.08.62-.1.69h-3.2"
          transform="translate(-468.72 -294.47)"
          style="fill:none;stroke:#ffc925;stroke-miterlimit:10;stroke-width:2px"/>
    <path d="M1.79,6.87h1.7a1,1,0,0,1,1,1v0a1.7,1.7,0,0,1-1.7,1.7h-1a0,0,0,0,1,0,0V6.87a0,0,0,0,1,0,0Z"
          style="fill:none;stroke:#ffc925;stroke-miterlimit:10;stroke-width:2px"/>
    <circle cx="9.14" cy="12.73" r="3.03" style="fill:none;stroke:#ffc925;stroke-miterlimit:10;stroke-width:2px"/>
    <circle cx="9.14" cy="12.65" r="0.81" style="fill:none;stroke:#ffc925;stroke-miterlimit:10"/>
    <circle cx="31.96" cy="12.73" r="3.03" style="fill:none;stroke:#ffc925;stroke-miterlimit:10;stroke-width:2px"/>
    <circle cx="31.96" cy="12.65" r="0.81" style="fill:none;stroke:#ffc925;stroke-miterlimit:10"/>
    <path d="M475.85,297.69s1.27,3.11,3.43,3.11h22.2" transform="translate(-468.72 -294.47)"
          style="fill:none;stroke:#ffc925;stroke-linecap:round;stroke-miterlimit:10;stroke-width:2px"/>
    <line x1="9.95" y1="9.27" x2="11.36" y2="1.76"
          style="fill:none;stroke:#ffc925;stroke-linecap:round;stroke-miterlimit:10;stroke-width:2px"/>
    <polyline points="19.44 12.35 19.44 5.96 17.82 1.39"
              style="fill:none;stroke:#ffc925;stroke-linecap:round;stroke-miterlimit:10;stroke-width:2px"/>
    <path d="M506.47,303.41a.93.93,0,0,1-1.11.74.94.94,0,0,1-.74-1.11,1,1,0,0,1,1.12-.74"
          transform="translate(-468.72 -294.47)"
          style="fill:none;stroke:#ffc925;stroke-miterlimit:10;stroke-width:2px"/>
</svg>