<svg xmlns="http://www.w3.org/2000/svg" viewBox="0 0 9 16">
  <path fill="#fff" d="M1076.66,426l-2.16,0a3.716,3.716,0,0,0-3.99,3.937v1.816h-2.17a0.332,0.332,0,0,0-.34.326v2.631a0.332,0.332,0,0,0,.34.326h2.17v6.638a0.332,0.332,0,0,0,.34.326h2.83a0.332,0.332,0,0,0,.34-0.326v-6.638h2.54a0.332,0.332,0,0,0,.34-0.326v-2.631a0.335,0.335,0,0,0-.34-0.326h-2.54v-1.539c0-.74.18-1.116,1.19-1.116h1.45a0.332,0.332,0,0,0,.34-0.326v-2.443A0.332,0.332,0,0,0,1076.66,426Z" transform="translate(-1068 -426)"/>
</svg>
