<svg xmlns="http://www.w3.org/2000/svg" viewBox="0 0 16 9">
  <path fill="#fff" d="M999.77,1651.72c0.53,0.52,1.09,1,1.57,1.57a4.423,4.423,0,0,1,.56.8,0.577,0.577,0,0,1-.36.9h-2.327a1.8,1.8,0,0,1-1.484-.6c-0.322-.33-0.621-0.67-0.932-1.01a2.045,2.045,0,0,0-.419-0.37,0.486,0.486,0,0,0-.776.19,2.4,2.4,0,0,0-.246,1.08,0.614,0.614,0,0,1-.742.71,5.955,5.955,0,0,1-3.335-.71,7.386,7.386,0,0,1-2.245-2.09,28.058,28.058,0,0,1-2.953-5.23c-0.187-.42-0.05-0.64.407-0.65q1.141-.015,2.283,0a0.677,0.677,0,0,1,.633.47,13.723,13.723,0,0,0,1.546,2.85,2.445,2.445,0,0,0,.585.64,0.354,0.354,0,0,0,.6-0.18,1.929,1.929,0,0,0,.134-0.59,8.944,8.944,0,0,0-.037-2.1,0.889,0.889,0,0,0-.748-0.8c-0.223-.04-0.19-0.12-0.082-0.25a0.856,0.856,0,0,1,.715-0.35h2.634a0.626,0.626,0,0,1,.564.68l0,2.91a0.836,0.836,0,0,0,.372.74,0.518,0.518,0,0,0,.526-0.25,9.214,9.214,0,0,0,1.483-2.27c0.178-.36.332-0.73,0.48-1.1a0.571,0.571,0,0,1,.6-0.41l2.533,0.01a1.77,1.77,0,0,1,.23.01,0.438,0.438,0,0,1,.41.67,6.33,6.33,0,0,1-1.01,1.74c-0.42.58-.87,1.14-1.293,1.73a0.779,0.779,0,0,0,.123,1.26h0Z" transform="translate(-986 -1646)"/>
</svg>
