<svg xmlns="http://www.w3.org/2000/svg" viewBox="0 0 16 15">
    <path d="M257,189.5a2.5,2.5,0,0,1,2.5,2.5v2s0,.06,0,.09a1.1,1.1,0,0,0,0,.18l-.12,1.15,1.08.41a4.77,4.77,0,0,1,3.07,4.44v1.25h-13v-1.25a4.77,4.77,0,0,1,3.07-4.44l1.08-.41-.12-1.15a1.1,1.1,0,0,0,0-.18.56.56,0,0,0,0-.07v-2a2.5,2.5,0,0,1,2.5-2.5m0-1.5a4,4,0,0,0-4,4v2c0,.14,0,.27,0,.41a6.24,6.24,0,0,0-4,5.84V203h16v-2.75a6.24,6.24,0,0,0-4-5.84c0-.14,0-.27,0-.41v-2a4,4,0,0,0-4-4Z"
          transform="translate(-249 -188)" fill="#fff"/>
</svg>