<svg xmlns="http://www.w3.org/2000/svg" viewBox="0 0 11.81 16.26">
    <path d="M638.76,277.76l1.69,3.35-1.34.7,2.78,5.57,1.37-.69,1.75,3.43a4.33,4.33,0,0,1-2.09.64,2.29,2.29,0,0,1-1.72-.73c-1.33-1.38-4.37-5.53-4.55-9.2,0,0-.11-2.49,2.11-3.07m.8-1.76-1.18.31a4.49,4.49,0,0,0-3.23,4.58c.21,4.33,3.66,8.81,5,10.18a3.85,3.85,0,0,0,2.81,1.19,5.82,5.82,0,0,0,2.91-.89l1.13-.73-.61-1.21L644.6,286l-.68-1.33-1.34.67h0l-1.45-2.9,0,0,1.31-.68-.66-1.33-1.69-3.35-.54-1.08Z"
          transform="translate(-635.15 -276)" fill="#fff"/>
</svg>