<svg xmlns="http://www.w3.org/2000/svg" viewBox="0 0 44.48 33.23">
    <title>icon-comparison</title>
    <line x1="7.17" y1="7.17" x2="16.01" y2="7.17"
          style="fill:none;stroke:#ff8500;stroke-linecap:round;stroke-miterlimit:10;stroke-width:3px"/>
    <line x1="28.69" y1="7.17" x2="37.53" y2="7.17"
          style="fill:none;stroke:#ff8500;stroke-linecap:round;stroke-miterlimit:10;stroke-width:3px"/>
    <path d="M534.82,196l-4.9,8.5a5.66,5.66,0,0,0,4.9,8.5h0a5.67,5.67,0,0,0,4.91-8.5Z"
          transform="translate(-527.65 -181.29)"
          style="fill:none;stroke:#ff8500;stroke-miterlimit:10;stroke-width:3px"/>
    <path d="M565,196l-4.91,8.5A5.67,5.67,0,0,0,565,213h0a5.66,5.66,0,0,0,4.9-8.5Z"
          transform="translate(-527.65 -181.29)"
          style="fill:none;stroke:#ff8500;stroke-miterlimit:10;stroke-width:3px"/>
    <line x1="22.39" y1="14.74" x2="22.39" y2="24.57"
          style="fill:none;stroke:#ff8500;stroke-linecap:round;stroke-miterlimit:10;stroke-width:3px"/>
    <circle cx="22.35" cy="7.84" r="6.34" style="fill:none;stroke:#ff8500;stroke-miterlimit:10;stroke-width:3px"/>
    <circle cx="22.35" cy="7.84" r="2.44" style="fill:#ff8500"/>
</svg>