<svg xmlns="http://www.w3.org/2000/svg" viewBox="0 0 33.81 32.62">
    <title>icon-favorites</title>
    <path d="M643,191.29l6.84,2.12a2.15,2.15,0,0,1,1,3.39l-4.45,5.61a2.18,2.18,0,0,0-.46,1.37l.1,7.16a2.15,2.15,0,0,1-2.9,2l-6.72-2.49a2.16,2.16,0,0,0-1.44,0l-6.78,2.31a2.15,2.15,0,0,1-2.84-2.13l.29-7.15a2.19,2.19,0,0,0-.42-1.38L621,196.38a2.15,2.15,0,0,1,1.14-3.36l6.9-1.93a2.11,2.11,0,0,0,1.18-.83l4.13-5.85a2.15,2.15,0,0,1,3.55.05l4,6A2.24,2.24,0,0,0,643,191.29Z"
          transform="translate(-619.06 -182)"
          style="fill:none;stroke:#ff8500;stroke-linecap:round;stroke-linejoin:round;stroke-width:3px"/>
    <circle cx="16.94" cy="17.27" r="4.05" style="fill:none;stroke:#ff8500;stroke-miterlimit:10;stroke-width:3px"/>
</svg>