<svg xmlns="http://www.w3.org/2000/svg" viewBox="0 0 16 13">
  <path fill="#fff" d="M1094.56,501.24a6.659,6.659,0,0,1-2.09.8,3.285,3.285,0,0,0-5.68,2.245,3.083,3.083,0,0,0,.09.748,9.327,9.327,0,0,1-6.77-3.43,3.3,3.3,0,0,0,1.02,4.382,3.313,3.313,0,0,1-1.49-.412v0.041a3.294,3.294,0,0,0,2.64,3.219,3.393,3.393,0,0,1-.87.115,3.341,3.341,0,0,1-.62-0.059,3.292,3.292,0,0,0,3.07,2.28,6.585,6.585,0,0,1-4.08,1.4,6.8,6.8,0,0,1-.78-0.045,9.334,9.334,0,0,0,14.37-7.865l-0.01-.425a6.666,6.666,0,0,0,1.64-1.7,6.567,6.567,0,0,1-1.88.517A3.344,3.344,0,0,0,1094.56,501.24Z" transform="translate(-1079 -501)"/>
</svg>
