<svg xmlns="http://www.w3.org/2000/svg" viewBox="0 0 21.95 28.51"><title>motor-oil</title><polyline points="5.61 24.73 5.61 27.51 20.95 27.51 20.95 10.65 13.5 5.21 5.61 5.26 5.61 11.24" style="fill:none;stroke:#ffc925;stroke-miterlimit:10;stroke-width:2px"/><polygon points="12.75 4.94 5.61 4.97 5.61 1.04 12.75 1 12.75 4.94" style="fill:none;stroke:#ffc925;stroke-miterlimit:10;stroke-width:2px"/><line x1="8.14" y1="0.97" x2="8.14" y2="4.47" style="fill:none;stroke:#ffc925;stroke-miterlimit:10"/><line x1="10.11" y1="1" x2="10.11" y2="4.5" style="fill:none;stroke:#ffc925;stroke-miterlimit:10"/><path d="M592.91,291.34" transform="translate(-581.39 -286.84)" style="fill:none;stroke:#ffc925;stroke-miterlimit:10"/><path d="M592.49,287.84" transform="translate(-581.39 -286.84)" style="fill:none;stroke:#ffc925;stroke-miterlimit:10"/><path d="M587.18,297l-4,6.45a4.79,4.79,0,0,0,4,7.34h0a4.79,4.79,0,0,0,4.06-7.34Z" transform="translate(-581.39 -286.84)" style="fill:none;stroke:#ffc925;stroke-miterlimit:10;stroke-width:2px"/><line x1="8.52" y1="14.5" x2="20.95" y2="14.5" style="fill:none;stroke:#ffc925;stroke-miterlimit:10"/><line x1="20.95" y1="20.08" x2="10.53" y2="20.08" style="fill:none;stroke:#ffc925;stroke-miterlimit:10"/></svg>